<?xml version="1.0" encoding="UTF-8" standalone="no"?>
<!-- Created with Inkscape (http://www.inkscape.org/) -->

<svg
   xmlns:dc="http://purl.org/dc/elements/1.1/"
   xmlns:cc="http://creativecommons.org/ns#"
   xmlns:rdf="http://www.w3.org/1999/02/22-rdf-syntax-ns#"
   xmlns:svg="http://www.w3.org/2000/svg"
   xmlns="http://www.w3.org/2000/svg"
   xmlns:sodipodi="http://sodipodi.sourceforge.net/DTD/sodipodi-0.dtd"
   xmlns:inkscape="http://www.inkscape.org/namespaces/inkscape"
   version="1.1"
   width="600"
   height="600"
   viewBox="0 0 600 600"
   id="Layer_1"
   xml:space="preserve"
   style="overflow:visible"
   inkscape:version="0.48.4 r9939"
   sodipodi:docname="logo.svg"
   inkscape:export-filename="/home/r0583221/AndroidStudioProjects/bikeRisk/app/src/main/res/mipmap-xxxhdpi/ic_launcher.png"
   inkscape:export-xdpi="28.799999"
   inkscape:export-ydpi="28.799999"><sodipodi:namedview
     pagecolor="#ffffff"
     bordercolor="#666666"
     borderopacity="1"
     objecttolerance="10"
     gridtolerance="10"
     guidetolerance="10"
     inkscape:pageopacity="0"
     inkscape:pageshadow="2"
     inkscape:window-width="1855"
     inkscape:window-height="1056"
     id="namedview14"
     showgrid="false"
     inkscape:zoom="0.39333333"
     inkscape:cx="-77.542135"
     inkscape:cy="300"
     inkscape:window-x="65"
     inkscape:window-y="24"
     inkscape:window-maximized="1"
     inkscape:current-layer="Layer_1" /><metadata
     id="metadata27"><rdf:RDF><cc:Work
         rdf:about=""><dc:format>image/svg+xml</dc:format><dc:type
           rdf:resource="http://purl.org/dc/dcmitype/StillImage" /><dc:title></dc:title></cc:Work></rdf:RDF></metadata><defs
     id="defs25" /><g
     id="g3"
     transform="translate(74.999755,0)"><g
       id="g5"><path
         d="M 0,40 C 0,17.908203 17.908691,0 40,0 h 370.00049 c 22.0918,0 40,17.908203 40,40 v 520 c 0,22.0918 -17.9082,40 -40,40 H 40 C 17.908691,600 0,582.0918 0,560 V 40 l 0,0 z"
         id="path7"
         inkscape:connector-curvature="0" /><path
         d="M 225,300"
         id="path9"
         inkscape:connector-curvature="0" /></g><path
       d="M 431.43701,374.14746 C 439.83936,241.19092 387.00244,126.44189 224.99951,44.153809 62.996582,126.44189 10.160645,241.19092 18.563477,374.14746 H 431.43701 z"
       id="path11"
       style="fill:#ffffff;fill-rule:evenodd"
       inkscape:connector-curvature="0" /><path
       d="m 431.43701,464.14648 c 0,-25.33398 0,-45.66601 0,-70.99902 H 18.563477 c 0,25.33301 0,45.66504 0,70.99902 -3.661621,111.96387 416.538573,112.09766 412.873533,0 z"
       id="path13"
       style="fill:#ffffff;fill-rule:evenodd"
       inkscape:connector-curvature="0" /><path
       d="m 269.62646,283.08936 42.75586,-6.97803 -26.94628,-35.00293 c -13.96729,12.17871 -15.70508,26.79785 -15.80958,41.98096 z m -11.76171,2.56103 c -0.0688,-1.51709 -0.3125,-3.95654 -0.3125,-5.66455 0,-17.3208 5.60302,-34.15283 20.81005,-48.1416 l -15.8374,-18.96289 -24.51367,74.78369 19.85352,-2.01465 z m -94.08887,-74.42822 1.35889,-4.16162 87.31152,-0.11426 -23.22656,70.41064 -1.00244,-7.34521 h 2.67236 l -0.33545,-4.67432 h -11.68604 l 0.33448,4.34082 h 3.00537 l 0.66748,8.01367 c 0,0 -58.76563,-66.13623 -59.09961,-66.46972 z m -38.66943,67.63818 c 11.72509,-9.31348 20.85156,-18.18945 27.4331,-35.95264 10.3877,9.42334 16.31445,23.05323 16.31445,37.07813 0,27.85156 -22.71728,50.56836 -50.56982,50.56836 -27.852051,0 -50.56836,-22.7168 -50.56836,-50.56836 0,-27.85254 22.716309,-50.56885 50.56836,-50.56885 8.88965,0 17.97607,2.56738 25.30322,6.89258 -4.95996,15.67188 -9.78418,23.75488 -25.04443,36.03955 -3.7041,0.15625 -6.521,3.13037 -6.521,6.67774 0,3.67871 2.99951,6.67822 6.67725,6.67822 3.67822,0 6.40723,-2.99951 6.40723,-6.84473 z m 146.31152,14.97363 c 5.71924,21.31348 26.06592,36.72168 48.58545,36.72168 27.85254,0 50.57031,-22.71679 50.57031,-50.56982 0,-27.85254 -22.71777,-50.57031 -50.57031,-50.57031 -8.88965,0 -19.17481,2.09863 -26.67871,6.49121 l 27.44775,36.44238 c 3.35693,0.0527 6.27979,3.05225 6.27979,6.67774 0,3.67871 -3.00098,6.67822 -6.67823,6.67822 -1.01806,0 -2.08691,-0.26074 -2.98974,-0.68604 l -45.96631,8.81494 z m -124.22022,-69.22949 17.91358,-49.41894 -5.67627,-9.68409 11.35254,-12.35351 h 24.37402 l 0.33447,7.01172 h -21.36963 l -4.34033,4.67431 5.00782,9.01514 -6.29786,22.32227 h 87.4751 l 1.33643,-4.08252 c -7.03028,-0.91504 -19.15625,-5.24658 -22.05225,-7.76123 -2.89599,-2.51612 -0.36035,-4.82959 2.93848,-4.93799 17.26513,-0.7334 42.91504,-2.17969 47.78808,-2.20069 4.87159,-0.0225 5.37061,2.42823 2.10938,5.9961 -3.26172,3.56738 -6.11279,6.77978 -18.47022,8.69433 l -3.33838,9.01514 20.69874,25.64356 c 9.75683,-5.92334 21.55664,-9.00489 33.02197,-9.00489 34.39746,0 62.45215,28.05469 62.45215,62.45264 0,34.39746 -28.05469,62.45166 -62.45215,62.45166 -28.29834,0 -53.18164,-19.51562 -60.49414,-46.48877 l -19.02051,3.41797 c -0.81445,2.24219 -2.71191,3.96191 -4.979,5.30762 l 3.39257,16.09033 h 4.34034 l 0.33398,4.34082 -13.68945,0.66699 v -4.67432 h 3.33935 l -4.13525,-16.08105 c -6.15381,-1.00635 -9.37793,-6.27393 -7.54541,-11.50195 l -62.13428,-70.27295 -2.78174,7.54004 c 15.08008,11.87793 24.10645,30.1748 24.10645,49.20361 0,34.39746 -28.05469,62.45166 -62.45215,62.45166 -34.396973,0 -62.45166,-28.0542 -62.45166,-62.45166 0,-34.39795 28.054687,-62.45264 62.45166,-62.45264 10.00244,0 20.24853,2.44092 28.91357,7.07129 z"
       id="path15"
       style="fill-rule:evenodd"
       inkscape:connector-curvature="0" /></g><g
     id="text3004"
     style="font-size:180.11354065px;font-style:normal;font-variant:normal;font-weight:normal;font-stretch:normal;text-align:center;line-height:100%;letter-spacing:0px;word-spacing:0px;writing-mode:lr-tb;text-anchor:middle;fill:#000000;fill-opacity:1;stroke:none;font-family:Roadgeek 2005 Series C;-inkscape-font-specification:Roadgeek 2005 Series C"
     transform="translate(74.88764,0)"><path
       d="m 266.17825,491.4557 c -10e-5,5.52352 -1.14082,10.7468 -3.42216,15.66988 -2.16145,4.92312 -5.16334,9.24584 -9.00568,12.96818 -3.72242,3.72235 -8.04514,6.6642 -12.96817,8.82556 -4.92317,2.16136 -10.14646,3.24204 -15.66988,3.24204 -5.52353,0 -10.74682,-1.08068 -15.66988,-3.24204 -4.92314,-2.16136 -9.30589,-5.10321 -13.14829,-8.82556 -3.72236,-3.72234 -6.72425,-8.04506 -9.00568,-12.96818 -2.16137,-4.92308 -3.24205,-10.14636 -3.24204,-15.66988 -1e-5,-5.76359 1.20075,-10.92684 3.60227,-15.48976 2.4015,-4.6829 5.82365,-8.8255 10.26647,-12.42784 -5.88373,-6.24386 -8.82558,-13.56847 -8.82556,-21.97385 -2e-5,-4.68286 0.96059,-9.06562 2.88182,-13.14829 1.92119,-4.20254 4.50281,-7.86485 7.74488,-10.98692 3.36209,-3.24193 7.20451,-5.76352 11.52727,-7.56477 4.32268,-1.80102 8.94559,-2.70158 13.86874,-2.7017 4.80297,1.2e-4 9.42588,0.90068 13.86874,2.7017 4.44273,1.80125 8.28515,4.32284 11.52727,7.56477 3.36204,3.12207 6.0037,6.78438 7.92499,10.98692 2.0412,4.08267 3.06184,8.46543 3.06193,13.14829 -9e-5,4.20274 -0.84061,8.16523 -2.52159,11.8875 -1.56107,3.60234 -3.8425,6.96446 -6.84431,10.08635 4.68287,3.60234 8.16506,7.80498 10.44658,12.60795 2.40143,4.683 3.60218,9.78621 3.60228,15.30965 m -24.13522,-50.43179 c -7e-5,-3.9624 -1.68113,-7.32452 -5.04318,-10.08636 -3.2421,-2.88171 -7.2046,-4.32262 -11.88749,-4.32272 -4.683,1e-4 -8.70553,1.44101 -12.06761,4.32272 -3.24208,2.76184 -4.8631,6.12396 -4.86306,10.08636 -4e-5,3.60236 1.62098,6.72432 4.86306,9.36591 3.36208,2.52166 7.38461,3.78246 12.06761,3.78238 4.68289,8e-5 8.64539,-1.26072 11.88749,-3.78238 3.36205,-2.64159 5.04311,-5.76355 5.04318,-9.36591 m 5.04318,50.79202 c -7e-5,-2.52155 -0.60045,-4.86302 -1.80113,-7.02443 -1.20083,-2.28139 -2.82185,-4.2026 -4.86307,-5.76363 -1.92128,-1.68101 -4.20271,-3.00184 -6.84432,-3.9625 -2.64172,-0.96055 -5.4635,-1.44085 -8.46533,-1.44091 -3.00194,6e-5 -5.82372,0.48036 -8.46534,1.44091 -2.52163,0.96066 -4.80307,2.28149 -6.84431,3.9625 -1.92125,1.56103 -3.48223,3.48224 -4.68295,5.76363 -1.08072,2.16141 -1.62106,4.50288 -1.62103,7.02443 -3e-5,2.88185 0.54031,5.58355 1.62103,8.10511 1.20072,2.52162 2.7617,4.74301 4.68295,6.6642 2.04124,1.92123 4.32268,3.42218 6.84431,4.50284 2.64162,1.0807 5.4634,1.62104 8.46534,1.62102 3.00183,2e-5 5.82361,-0.54032 8.46533,-1.62102 2.76168,-1.08066 5.10316,-2.58161 7.02443,-4.50284 2.04122,-1.92119 3.6022,-4.14258 4.68296,-6.6642 1.20068,-2.52156 1.80106,-5.22326 1.80113,-8.10511"
       id="path3006"
       style="font-family:Roadgeek 2005 Series D;-inkscape-font-specification:Roadgeek 2005 Series D"
       inkscape:connector-curvature="0" /></g><rect
     style="fill:#ffffff"
     id="rect2991"
     width="127.11864"
     height="134.74576"
     x="236.44067"
     y="401.69492" /><flowRoot
     xml:space="preserve"
     id="flowRoot2993"
     style="font-size:72px;font-style:normal;font-weight:bold;line-height:126.99999809%;letter-spacing:0px;word-spacing:0px;fill:#000000;fill-opacity:1;stroke:none;font-family:Sans;-inkscape-font-specification:Sans Bold"
     transform="translate(76.027344,-1.1458321e-6)"><flowRegion
       id="flowRegion2995"><rect
         id="rect2997"
         width="411.86444"
         height="111.86438"
         x="17.79661"
         y="399.15253"
         style="font-size:72px;font-weight:bold;line-height:126.99999809%;-inkscape-font-specification:Sans Bold" /></flowRegion><flowPara
       id="flowPara2999">RoadWars</flowPara></flowRoot></svg>